<svg width="132" height="46" viewBox="0 0 132 46" fill="none" xmlns="http://www.w3.org/2000/svg">
<path d="M1.89 41V28.4H3.69V39.434H10.512V41H1.89ZM11.2144 41L15.8944 30.776H17.6224L22.3204 41H20.5564L16.4704 31.694H17.0644L12.9244 41H11.2144ZM13.3564 38.57L13.8244 37.184H19.4404L19.9084 38.57H13.3564ZM24.0526 41V30.776H28.7866C30.0226 30.776 30.9646 31.016 31.6126 31.496C32.2726 31.964 32.6026 32.606 32.6026 33.422C32.6026 34.238 32.3266 34.874 31.7746 35.33C31.2346 35.786 30.5266 36.014 29.6506 36.014L29.9206 35.528C30.9166 35.528 31.7026 35.756 32.2786 36.212C32.8546 36.668 33.1426 37.34 33.1426 38.228C33.1426 39.092 32.8006 39.77 32.1166 40.262C31.4326 40.754 30.4246 41 29.0926 41H24.0526ZM25.7986 39.668H29.0026C29.7706 39.668 30.3586 39.542 30.7666 39.29C31.1746 39.026 31.3786 38.624 31.3786 38.084C31.3786 37.532 31.1746 37.13 30.7666 36.878C30.3586 36.626 29.7706 36.5 29.0026 36.5H25.5106V35.168H28.6246C29.3446 35.168 29.8966 35.036 30.2806 34.772C30.6646 34.508 30.8566 34.124 30.8566 33.62C30.8566 33.116 30.6646 32.738 30.2806 32.486C29.8966 32.234 29.3446 32.108 28.6246 32.108H25.7986V39.668ZM40.2446 41.144C39.1886 41.144 38.2406 40.916 37.4006 40.46C36.5606 40.004 35.8946 39.38 35.4026 38.588C34.9226 37.784 34.6826 36.878 34.6826 35.87C34.6826 34.874 34.9226 33.98 35.4026 33.188C35.8946 32.396 36.5606 31.772 37.4006 31.316C38.2406 30.86 39.1886 30.632 40.2446 30.632C41.3126 30.632 42.2606 30.86 43.0886 31.316C43.9286 31.772 44.5886 32.396 45.0686 33.188C45.5606 33.98 45.8066 34.874 45.8066 35.87C45.8066 36.878 45.5606 37.784 45.0686 38.588C44.5886 39.38 43.9286 40.004 43.0886 40.46C42.2606 40.916 41.3126 41.144 40.2446 41.144ZM40.2446 39.632C40.9766 39.632 41.6246 39.47 42.1886 39.146C42.7646 38.822 43.2146 38.378 43.5386 37.814C43.8746 37.238 44.0426 36.596 44.0426 35.888C44.0426 35.156 43.8746 34.514 43.5386 33.962C43.2146 33.398 42.7646 32.954 42.1886 32.63C41.6246 32.306 40.9766 32.144 40.2446 32.144C39.5246 32.144 38.8766 32.306 38.3006 32.63C37.7246 32.942 37.2686 33.38 36.9326 33.944C36.6086 34.508 36.4466 35.156 36.4466 35.888C36.4466 36.596 36.6086 37.238 36.9326 37.814C37.2686 38.378 37.7246 38.822 38.3006 39.146C38.8766 39.47 39.5246 39.632 40.2446 39.632ZM55.4916 38.084C55.4916 38.708 55.3236 39.248 54.9876 39.704C54.6636 40.16 54.1896 40.514 53.5656 40.766C52.9536 41.018 52.2096 41.144 51.3336 41.144C50.5416 41.144 49.7676 41.036 49.0116 40.82C48.2676 40.592 47.6856 40.292 47.2656 39.92L47.9496 38.552C48.3576 38.876 48.8676 39.146 49.4796 39.362C50.0916 39.566 50.7336 39.668 51.4056 39.668C52.2696 39.668 52.8756 39.53 53.2236 39.254C53.5716 38.966 53.7456 38.63 53.7456 38.246C53.7456 37.91 53.6316 37.646 53.4036 37.454C53.1876 37.25 52.8936 37.094 52.5216 36.986C52.1496 36.866 51.7416 36.758 51.2976 36.662C50.8656 36.566 50.4276 36.458 49.9836 36.338C49.5516 36.218 49.1496 36.056 48.7776 35.852C48.4176 35.648 48.1236 35.372 47.8956 35.024C47.6676 34.664 47.5536 34.214 47.5536 33.674C47.5536 33.062 47.7216 32.528 48.0576 32.072C48.3936 31.616 48.8676 31.262 49.4796 31.01C50.0916 30.758 50.8236 30.632 51.6756 30.632C52.2996 30.632 52.9176 30.704 53.5296 30.848C54.1416 30.98 54.6696 31.202 55.1136 31.514L54.4836 32.918C54.0516 32.618 53.5836 32.408 53.0796 32.288C52.5876 32.168 52.1016 32.108 51.6216 32.108C50.8056 32.108 50.2116 32.252 49.8396 32.54C49.4796 32.816 49.2996 33.158 49.2996 33.566C49.2996 33.902 49.4136 34.172 49.6416 34.376C49.8696 34.568 50.1636 34.724 50.5236 34.844C50.8956 34.952 51.3036 35.054 51.7476 35.15C52.1916 35.246 52.6296 35.354 53.0616 35.474C53.4936 35.594 53.8956 35.756 54.2676 35.96C54.6396 36.164 54.9336 36.44 55.1496 36.788C55.3776 37.124 55.4916 37.556 55.4916 38.084ZM62.8861 41V28.4H64.3621L70.0141 37.922H69.2221L74.8021 28.4H76.2781L76.2961 41H74.5681L74.5501 31.118H74.9641L69.9961 39.47H69.1681L64.1641 31.118H64.6141V41H62.8861ZM79.9335 41V30.776H81.6795V41H79.9335ZM85.1542 41V30.776H86.9002V39.542H92.3902V41H85.1542ZM98.6567 41.144C97.6007 41.144 96.6527 40.916 95.8127 40.46C94.9727 40.004 94.3067 39.38 93.8147 38.588C93.3347 37.784 93.0947 36.878 93.0947 35.87C93.0947 34.874 93.3347 33.98 93.8147 33.188C94.3067 32.396 94.9727 31.772 95.8127 31.316C96.6527 30.86 97.6007 30.632 98.6567 30.632C99.7247 30.632 100.673 30.86 101.501 31.316C102.341 31.772 103.001 32.396 103.481 33.188C103.973 33.98 104.219 34.874 104.219 35.87C104.219 36.878 103.973 37.784 103.481 38.588C103.001 39.38 102.341 40.004 101.501 40.46C100.673 40.916 99.7247 41.144 98.6567 41.144ZM98.6567 39.632C99.3887 39.632 100.037 39.47 100.601 39.146C101.177 38.822 101.627 38.378 101.951 37.814C102.287 37.238 102.455 36.596 102.455 35.888C102.455 35.156 102.287 34.514 101.951 33.962C101.627 33.398 101.177 32.954 100.601 32.63C100.037 32.306 99.3887 32.144 98.6567 32.144C97.9367 32.144 97.2887 32.306 96.7127 32.63C96.1367 32.942 95.6807 33.38 95.3447 33.944C95.0207 34.508 94.8587 35.156 94.8587 35.888C94.8587 36.596 95.0207 37.238 95.3447 37.814C95.6807 38.378 96.1367 38.822 96.7127 39.146C97.2887 39.47 97.9367 39.632 98.6567 39.632ZM106.758 41V30.776H110.934C111.834 30.776 112.608 30.92 113.256 31.208C113.904 31.484 114.408 31.892 114.768 32.432C115.128 32.96 115.308 33.608 115.308 34.376C115.308 35.12 115.128 35.762 114.768 36.302C114.408 36.842 113.904 37.256 113.256 37.544C112.608 37.82 111.834 37.958 110.934 37.958H107.73L108.504 37.166V41H106.758ZM113.598 41L110.934 37.292H112.824L115.488 41H113.598ZM108.504 37.364L107.838 36.536H110.826C111.714 36.536 112.386 36.35 112.842 35.978C113.31 35.606 113.544 35.072 113.544 34.376C113.544 33.68 113.31 33.146 112.842 32.774C112.386 32.402 111.714 32.216 110.826 32.216H107.838L108.504 31.388V37.364ZM118.096 41V30.776H119.842V41H118.096ZM130.462 38.084C130.462 38.708 130.294 39.248 129.958 39.704C129.634 40.16 129.16 40.514 128.536 40.766C127.924 41.018 127.18 41.144 126.304 41.144C125.512 41.144 124.738 41.036 123.982 40.82C123.238 40.592 122.656 40.292 122.236 39.92L122.92 38.552C123.328 38.876 123.838 39.146 124.45 39.362C125.062 39.566 125.704 39.668 126.376 39.668C127.24 39.668 127.846 39.53 128.194 39.254C128.542 38.966 128.716 38.63 128.716 38.246C128.716 37.91 128.602 37.646 128.374 37.454C128.158 37.25 127.864 37.094 127.492 36.986C127.12 36.866 126.712 36.758 126.268 36.662C125.836 36.566 125.398 36.458 124.954 36.338C124.522 36.218 124.12 36.056 123.748 35.852C123.388 35.648 123.094 35.372 122.866 35.024C122.638 34.664 122.524 34.214 122.524 33.674C122.524 33.062 122.692 32.528 123.028 32.072C123.364 31.616 123.838 31.262 124.45 31.01C125.062 30.758 125.794 30.632 126.646 30.632C127.27 30.632 127.888 30.704 128.5 30.848C129.112 30.98 129.64 31.202 130.084 31.514L129.454 32.918C129.022 32.618 128.554 32.408 128.05 32.288C127.558 32.168 127.072 32.108 126.592 32.108C125.776 32.108 125.182 32.252 124.81 32.54C124.45 32.816 124.27 33.158 124.27 33.566C124.27 33.902 124.384 34.172 124.612 34.376C124.84 34.568 125.134 34.724 125.494 34.844C125.866 34.952 126.274 35.054 126.718 35.15C127.162 35.246 127.6 35.354 128.032 35.474C128.464 35.594 128.866 35.756 129.238 35.96C129.61 36.164 129.904 36.44 130.12 36.788C130.348 37.124 130.462 37.556 130.462 38.084Z" fill="#CCA108"/>
<path d="M37.1 19V5H39.1V17.26H46.68V19H37.1Z" fill="#CCA108"/>
<path d="M49.1 24V10H50.74L57.02 20.58H56.14L62.34 10H63.98L64 24H62.08L62.06 13.02H62.52L57 22.3H56.08L50.52 13.02H51.02V24H49.1Z" fill="#CCA108"/>
</svg>
