<svg width="100" height="100" fill="none" xmlns="http://www.w3.org/2000/svg"><rect width="100" height="100" rx="5" fill="#fff"/><path d="M37.608 55.36V64H9.512V17.376h10.816V55.36h17.28ZM90.928 38.376V85h-9.536V58.184c0-.619.01-1.29.032-2.016.043-.725.107-1.461.192-2.208L69.232 77.928c-.384.747-.907 1.312-1.568 1.696-.64.384-1.376.576-2.208.576h-1.472c-.832 0-1.579-.192-2.24-.576-.64-.384-1.152-.95-1.536-1.696L47.824 53.896c.064.768.117 1.525.16 2.272.043.725.064 1.397.064 2.016V85h-9.536V38.376h8.256c.47 0 .875.01 1.216.032.363.021.683.085.96.192.277.107.523.277.736.512.235.213.459.523.672.928l12 23.648c.427.81.832 1.653 1.216 2.528.405.875.79 1.77 1.152 2.688.363-.939.736-1.856 1.12-2.752.405-.896.832-1.75 1.28-2.56L79.088 40.04c.213-.405.427-.715.64-.928.235-.235.49-.405.768-.512.277-.107.587-.17.928-.192a21.54 21.54 0 0 1 1.248-.032h8.256Z" fill="#000"/></svg>