<svg width="132" height="46" fill="none" xmlns="http://www.w3.org/2000/svg"><path d="M1.89 41V28.4h1.8v11.034h6.822V41H1.89Zm9.324 0 4.68-10.224h1.728L22.32 41h-1.764l-4.086-9.306h.594L12.924 41h-1.71Zm2.142-2.43.468-1.386h5.616l.468 1.386h-6.552ZM24.053 41V30.776h4.734c1.236 0 2.178.24 2.826.72.66.468.99 1.11.99 1.926 0 .816-.276 1.452-.828 1.908-.54.456-1.248.684-2.124.684l.27-.486c.996 0 1.782.228 2.358.684.576.456.864 1.128.864 2.016 0 .864-.342 1.542-1.026 2.034-.684.492-1.692.738-3.024.738h-5.04Zm1.746-1.332h3.204c.768 0 1.356-.126 1.764-.378.408-.264.612-.666.612-1.206 0-.552-.204-.954-.612-1.206-.408-.252-.996-.378-1.764-.378H25.51v-1.332h3.114c.72 0 1.272-.132 1.656-.396.384-.264.576-.648.576-1.152 0-.504-.192-.882-.576-1.134-.384-.252-.936-.378-1.656-.378h-2.826v7.56Zm14.446 1.476c-1.056 0-2.004-.228-2.844-.684a5.262 5.262 0 0 1-1.998-1.872c-.48-.804-.72-1.71-.72-2.718 0-.996.24-1.89.72-2.682a5.262 5.262 0 0 1 1.998-1.872c.84-.456 1.788-.684 2.844-.684 1.068 0 2.016.228 2.844.684.84.456 1.5 1.08 1.98 1.872.492.792.738 1.686.738 2.682 0 1.008-.246 1.914-.738 2.718a5.127 5.127 0 0 1-1.98 1.872c-.828.456-1.776.684-2.844.684Zm0-1.512c.732 0 1.38-.162 1.944-.486a3.512 3.512 0 0 0 1.35-1.332 3.752 3.752 0 0 0 .504-1.926c0-.732-.168-1.374-.504-1.926a3.512 3.512 0 0 0-1.35-1.332c-.564-.324-1.212-.486-1.944-.486-.72 0-1.368.162-1.944.486a3.512 3.512 0 0 0-1.368 1.314c-.324.564-.486 1.212-.486 1.944 0 .708.162 1.35.486 1.926a3.644 3.644 0 0 0 1.368 1.332c.576.324 1.224.486 1.944.486Zm15.247-1.548c0 .624-.168 1.164-.504 1.62-.324.456-.798.81-1.422 1.062-.612.252-1.356.378-2.232.378a8.411 8.411 0 0 1-2.322-.324c-.744-.228-1.326-.528-1.746-.9l.684-1.368c.408.324.918.594 1.53.81a6.05 6.05 0 0 0 1.926.306c.864 0 1.47-.138 1.818-.414.348-.288.522-.624.522-1.008 0-.336-.114-.6-.342-.792-.216-.204-.51-.36-.882-.468-.372-.12-.78-.228-1.224-.324-.432-.096-.87-.204-1.314-.324a5.634 5.634 0 0 1-1.206-.486 2.534 2.534 0 0 1-.882-.828c-.228-.36-.342-.81-.342-1.35 0-.612.168-1.146.504-1.602.336-.456.81-.81 1.422-1.062.612-.252 1.344-.378 2.196-.378.624 0 1.242.072 1.854.216.612.132 1.14.354 1.584.666l-.63 1.404c-.432-.3-.9-.51-1.404-.63a6.137 6.137 0 0 0-1.458-.18c-.816 0-1.41.144-1.782.432-.36.276-.54.618-.54 1.026 0 .336.114.606.342.81.228.192.522.348.882.468.372.108.78.21 1.224.306.444.096.882.204 1.314.324.432.12.834.282 1.206.486.372.204.666.48.882.828.228.336.342.768.342 1.296ZM62.886 41V28.4h1.476l5.652 9.522h-.792l5.58-9.522h1.476l.018 12.6h-1.728l-.018-9.882h.414l-4.968 8.352h-.828l-5.004-8.352h.45V41h-1.728Zm17.047 0V30.776h1.746V41h-1.746Zm5.221 0V30.776H86.9v8.766h5.49V41h-7.236Zm13.503.144c-1.056 0-2.004-.228-2.844-.684a5.262 5.262 0 0 1-1.998-1.872c-.48-.804-.72-1.71-.72-2.718 0-.996.24-1.89.72-2.682a5.262 5.262 0 0 1 1.998-1.872c.84-.456 1.788-.684 2.844-.684 1.068 0 2.016.228 2.844.684.84.456 1.5 1.08 1.98 1.872.492.792.738 1.686.738 2.682 0 1.008-.246 1.914-.738 2.718a5.127 5.127 0 0 1-1.98 1.872c-.828.456-1.776.684-2.844.684Zm0-1.512c.732 0 1.38-.162 1.944-.486a3.512 3.512 0 0 0 1.35-1.332 3.752 3.752 0 0 0 .504-1.926c0-.732-.168-1.374-.504-1.926a3.512 3.512 0 0 0-1.35-1.332c-.564-.324-1.212-.486-1.944-.486-.72 0-1.368.162-1.944.486a3.512 3.512 0 0 0-1.368 1.314c-.324.564-.486 1.212-.486 1.944 0 .708.162 1.35.486 1.926a3.644 3.644 0 0 0 1.368 1.332c.576.324 1.224.486 1.944.486ZM106.758 41V30.776h4.176c.9 0 1.674.144 2.322.432.648.276 1.152.684 1.512 1.224.36.528.54 1.176.54 1.944 0 .744-.18 1.386-.54 1.926-.36.54-.864.954-1.512 1.242-.648.276-1.422.414-2.322.414h-3.204l.774-.792V41h-1.746Zm6.84 0-2.664-3.708h1.89L115.488 41h-1.89Zm-5.094-3.636-.666-.828h2.988c.888 0 1.56-.186 2.016-.558.468-.372.702-.906.702-1.602 0-.696-.234-1.23-.702-1.602-.456-.372-1.128-.558-2.016-.558h-2.988l.666-.828v5.976ZM118.096 41V30.776h1.746V41h-1.746Zm12.366-2.916c0 .624-.168 1.164-.504 1.62-.324.456-.798.81-1.422 1.062-.612.252-1.356.378-2.232.378a8.411 8.411 0 0 1-2.322-.324c-.744-.228-1.326-.528-1.746-.9l.684-1.368c.408.324.918.594 1.53.81a6.05 6.05 0 0 0 1.926.306c.864 0 1.47-.138 1.818-.414.348-.288.522-.624.522-1.008 0-.336-.114-.6-.342-.792-.216-.204-.51-.36-.882-.468-.372-.12-.78-.228-1.224-.324-.432-.096-.87-.204-1.314-.324a5.634 5.634 0 0 1-1.206-.486 2.534 2.534 0 0 1-.882-.828c-.228-.36-.342-.81-.342-1.35 0-.612.168-1.146.504-1.602.336-.456.81-.81 1.422-1.062.612-.252 1.344-.378 2.196-.378.624 0 1.242.072 1.854.216.612.132 1.14.354 1.584.666l-.63 1.404c-.432-.3-.9-.51-1.404-.63a6.137 6.137 0 0 0-1.458-.18c-.816 0-1.41.144-1.782.432-.36.276-.54.618-.54 1.026 0 .336.114.606.342.81.228.192.522.348.882.468.372.108.78.21 1.224.306.444.096.882.204 1.314.324.432.12.834.282 1.206.486.372.204.666.48.882.828.228.336.342.768.342 1.296ZM37.1 19V5h2v12.26h7.58V19H37.1ZM49.1 24V10h1.64l6.28 10.58h-.88L62.34 10h1.64L64 24h-1.92l-.02-10.98h.46L57 22.3h-.92l-5.56-9.28h.5V24H49.1Z" fill="#CCA108"/></svg>