<svg width="100" height="100" viewBox="0 0 100 100" fill="none" xmlns="http://www.w3.org/2000/svg">
<rect width="100" height="100" rx="5" fill="white"/>
<path d="M37.608 55.36V64H9.512V17.376H20.328V55.36H37.608Z" fill="black"/>
<path d="M90.928 38.376V85H81.392V58.184C81.392 57.5653 81.4027 56.8933 81.424 56.168C81.4667 55.4427 81.5307 54.7067 81.616 53.96L69.232 77.928C68.848 78.6747 68.3253 79.24 67.664 79.624C67.024 80.008 66.288 80.2 65.456 80.2H63.984C63.152 80.2 62.4053 80.008 61.744 79.624C61.104 79.24 60.592 78.6747 60.208 77.928L47.824 53.896C47.888 54.664 47.9413 55.4213 47.984 56.168C48.0267 56.8933 48.048 57.5653 48.048 58.184V85H38.512V38.376H46.768C47.2373 38.376 47.6427 38.3867 47.984 38.408C48.3467 38.4293 48.6667 38.4933 48.944 38.6C49.2213 38.7067 49.4667 38.8773 49.68 39.112C49.9147 39.3253 50.1387 39.6347 50.352 40.04L62.352 63.688C62.7787 64.4987 63.184 65.3413 63.568 66.216C63.9733 67.0907 64.3573 67.9867 64.72 68.904C65.0827 67.9653 65.456 67.048 65.84 66.152C66.2453 65.256 66.672 64.4027 67.12 63.592L79.088 40.04C79.3013 39.6347 79.5147 39.3253 79.728 39.112C79.9627 38.8773 80.2187 38.7067 80.496 38.6C80.7733 38.4933 81.0827 38.4293 81.424 38.408C81.7867 38.3867 82.2027 38.376 82.672 38.376H90.928Z" fill="black"/>
</svg>
