<svg width="102" height="42" viewBox="0 0 102 42" fill="none" xmlns="http://www.w3.org/2000/svg">
<path d="M1.47 39V29.2H2.87V37.782H8.176V39H1.47ZM8.72233 39L12.3623 31.048H13.7063L17.3603 39H15.9883L12.8103 31.762H13.2723L10.0523 39H8.72233ZM10.3883 37.11L10.7523 36.032H15.1203L15.4843 37.11H10.3883ZM18.7076 39V31.048H22.3896C23.3509 31.048 24.0836 31.2347 24.5876 31.608C25.1009 31.972 25.3576 32.4713 25.3576 33.106C25.3576 33.7407 25.1429 34.2353 24.7136 34.59C24.2936 34.9447 23.7429 35.122 23.0616 35.122L23.2716 34.744C24.0463 34.744 24.6576 34.9213 25.1056 35.276C25.5536 35.6307 25.7776 36.1533 25.7776 36.844C25.7776 37.516 25.5116 38.0433 24.9796 38.426C24.4476 38.8087 23.6636 39 22.6276 39H18.7076ZM20.0656 37.964H22.5576C23.1549 37.964 23.6123 37.866 23.9296 37.67C24.2469 37.4647 24.4056 37.152 24.4056 36.732C24.4056 36.3027 24.2469 35.99 23.9296 35.794C23.6123 35.598 23.1549 35.5 22.5576 35.5H19.8416V34.464H22.2636C22.8236 34.464 23.2529 34.3613 23.5516 34.156C23.8503 33.9507 23.9996 33.652 23.9996 33.26C23.9996 32.868 23.8503 32.574 23.5516 32.378C23.2529 32.182 22.8236 32.084 22.2636 32.084H20.0656V37.964ZM31.3014 39.112C30.48 39.112 29.7427 38.9347 29.0894 38.58C28.436 38.2253 27.918 37.74 27.5354 37.124C27.162 36.4987 26.9754 35.794 26.9754 35.01C26.9754 34.2353 27.162 33.54 27.5354 32.924C27.918 32.308 28.436 31.8227 29.0894 31.468C29.7427 31.1133 30.48 30.936 31.3014 30.936C32.132 30.936 32.8694 31.1133 33.5134 31.468C34.1667 31.8227 34.68 32.308 35.0534 32.924C35.436 33.54 35.6274 34.2353 35.6274 35.01C35.6274 35.794 35.436 36.4987 35.0534 37.124C34.68 37.74 34.1667 38.2253 33.5134 38.58C32.8694 38.9347 32.132 39.112 31.3014 39.112ZM31.3014 37.936C31.8707 37.936 32.3747 37.81 32.8134 37.558C33.2614 37.306 33.6114 36.9607 33.8634 36.522C34.1247 36.074 34.2554 35.5747 34.2554 35.024C34.2554 34.4547 34.1247 33.9553 33.8634 33.526C33.6114 33.0873 33.2614 32.742 32.8134 32.49C32.3747 32.238 31.8707 32.112 31.3014 32.112C30.7414 32.112 30.2374 32.238 29.7894 32.49C29.3414 32.7327 28.9867 33.0733 28.7254 33.512C28.4734 33.9507 28.3474 34.4547 28.3474 35.024C28.3474 35.5747 28.4734 36.074 28.7254 36.522C28.9867 36.9607 29.3414 37.306 29.7894 37.558C30.2374 37.81 30.7414 37.936 31.3014 37.936ZM43.1601 36.732C43.1601 37.2173 43.0295 37.6373 42.7681 37.992C42.5161 38.3467 42.1475 38.622 41.6621 38.818C41.1861 39.014 40.6075 39.112 39.9261 39.112C39.3101 39.112 38.7081 39.028 38.1201 38.86C37.5415 38.6827 37.0888 38.4493 36.7621 38.16L37.2941 37.096C37.6115 37.348 38.0081 37.558 38.4841 37.726C38.9601 37.8847 39.4595 37.964 39.9821 37.964C40.6541 37.964 41.1255 37.8567 41.3961 37.642C41.6668 37.418 41.8021 37.1567 41.8021 36.858C41.8021 36.5967 41.7135 36.3913 41.5361 36.242C41.3681 36.0833 41.1395 35.962 40.8501 35.878C40.5608 35.7847 40.2435 35.7007 39.8981 35.626C39.5621 35.5513 39.2215 35.4673 38.8761 35.374C38.5401 35.2807 38.2275 35.1547 37.9381 34.996C37.6581 34.8373 37.4295 34.6227 37.2521 34.352C37.0748 34.072 36.9861 33.722 36.9861 33.302C36.9861 32.826 37.1168 32.4107 37.3781 32.056C37.6395 31.7013 38.0081 31.426 38.4841 31.23C38.9601 31.034 39.5295 30.936 40.1921 30.936C40.6775 30.936 41.1581 30.992 41.6341 31.104C42.1101 31.2067 42.5208 31.3793 42.8661 31.622L42.3761 32.714C42.0401 32.4807 41.6761 32.3173 41.2841 32.224C40.9015 32.1307 40.5235 32.084 40.1501 32.084C39.5155 32.084 39.0535 32.196 38.7641 32.42C38.4841 32.6347 38.3441 32.9007 38.3441 33.218C38.3441 33.4793 38.4328 33.6893 38.6101 33.848C38.7875 33.9973 39.0161 34.1187 39.2961 34.212C39.5855 34.296 39.9028 34.3753 40.2481 34.45C40.5935 34.5247 40.9341 34.6087 41.2701 34.702C41.6061 34.7953 41.9188 34.9213 42.2081 35.08C42.4975 35.2387 42.7261 35.4533 42.8941 35.724C43.0715 35.9853 43.1601 36.3213 43.1601 36.732ZM48.9114 39V29.2H50.0594L54.4554 36.606H53.8394L58.1794 29.2H59.3274L59.3414 39H57.9974L57.9834 31.314H58.3054L54.4414 37.81H53.7974L49.9054 31.314H50.2554V39H48.9114ZM62.1705 39V31.048H63.5285V39H62.1705ZM66.231 39V31.048H67.589V37.866H71.859V39H66.231ZM76.733 39.112C75.9117 39.112 75.1743 38.9347 74.521 38.58C73.8677 38.2253 73.3497 37.74 72.967 37.124C72.5937 36.4987 72.407 35.794 72.407 35.01C72.407 34.2353 72.5937 33.54 72.967 32.924C73.3497 32.308 73.8677 31.8227 74.521 31.468C75.1743 31.1133 75.9117 30.936 76.733 30.936C77.5637 30.936 78.301 31.1133 78.945 31.468C79.5983 31.8227 80.1117 32.308 80.485 32.924C80.8677 33.54 81.059 34.2353 81.059 35.01C81.059 35.794 80.8677 36.4987 80.485 37.124C80.1117 37.74 79.5983 38.2253 78.945 38.58C78.301 38.9347 77.5637 39.112 76.733 39.112ZM76.733 37.936C77.3023 37.936 77.8063 37.81 78.245 37.558C78.693 37.306 79.043 36.9607 79.295 36.522C79.5563 36.074 79.687 35.5747 79.687 35.024C79.687 34.4547 79.5563 33.9553 79.295 33.526C79.043 33.0873 78.693 32.742 78.245 32.49C77.8063 32.238 77.3023 32.112 76.733 32.112C76.173 32.112 75.669 32.238 75.221 32.49C74.773 32.7327 74.4183 33.0733 74.157 33.512C73.905 33.9507 73.779 34.4547 73.779 35.024C73.779 35.5747 73.905 36.074 74.157 36.522C74.4183 36.9607 74.773 37.306 75.221 37.558C75.669 37.81 76.173 37.936 76.733 37.936ZM83.0338 39V31.048H86.2818C86.9818 31.048 87.5838 31.16 88.0878 31.384C88.5918 31.5987 88.9838 31.916 89.2638 32.336C89.5438 32.7467 89.6838 33.2507 89.6838 33.848C89.6838 34.4267 89.5438 34.926 89.2638 35.346C88.9838 35.766 88.5918 36.088 88.0878 36.312C87.5838 36.5267 86.9818 36.634 86.2818 36.634H83.7898L84.3918 36.018V39H83.0338ZM88.3538 39L86.2818 36.116H87.7518L89.8238 39H88.3538ZM84.3918 36.172L83.8738 35.528H86.1978C86.8884 35.528 87.4111 35.3833 87.7658 35.094C88.1298 34.8047 88.3118 34.3893 88.3118 33.848C88.3118 33.3067 88.1298 32.8913 87.7658 32.602C87.4111 32.3127 86.8884 32.168 86.1978 32.168H83.8738L84.3918 31.524V36.172ZM91.8521 39V31.048H93.2101V39H91.8521ZM101.471 36.732C101.471 37.2173 101.34 37.6373 101.079 37.992C100.827 38.3467 100.458 38.622 99.9727 38.818C99.4967 39.014 98.918 39.112 98.2367 39.112C97.6207 39.112 97.0187 39.028 96.4307 38.86C95.852 38.6827 95.3994 38.4493 95.0727 38.16L95.6047 37.096C95.922 37.348 96.3187 37.558 96.7947 37.726C97.2707 37.8847 97.77 37.964 98.2927 37.964C98.9647 37.964 99.436 37.8567 99.7067 37.642C99.9774 37.418 100.113 37.1567 100.113 36.858C100.113 36.5967 100.024 36.3913 99.8467 36.242C99.6787 36.0833 99.45 35.962 99.1607 35.878C98.8714 35.7847 98.554 35.7007 98.2087 35.626C97.8727 35.5513 97.532 35.4673 97.1867 35.374C96.8507 35.2807 96.538 35.1547 96.2487 34.996C95.9687 34.8373 95.74 34.6227 95.5627 34.352C95.3854 34.072 95.2967 33.722 95.2967 33.302C95.2967 32.826 95.4274 32.4107 95.6887 32.056C95.95 31.7013 96.3187 31.426 96.7947 31.23C97.2707 31.034 97.84 30.936 98.5027 30.936C98.988 30.936 99.4687 30.992 99.9447 31.104C100.421 31.2067 100.831 31.3793 101.177 31.622L100.687 32.714C100.351 32.4807 99.9867 32.3173 99.5947 32.224C99.212 32.1307 98.834 32.084 98.4607 32.084C97.826 32.084 97.364 32.196 97.0747 32.42C96.7947 32.6347 96.6547 32.9007 96.6547 33.218C96.6547 33.4793 96.7434 33.6893 96.9207 33.848C97.098 33.9973 97.3267 34.1187 97.6067 34.212C97.896 34.296 98.2134 34.3753 98.5587 34.45C98.904 34.5247 99.2447 34.6087 99.5807 34.702C99.9167 34.7953 100.229 34.9213 100.519 35.08C100.808 35.2387 101.037 35.4533 101.205 35.724C101.382 35.9853 101.471 36.3213 101.471 36.732Z" fill="white"/>
<path d="M27.68 16V4.8H29.28V14.608H35.344V16H27.68Z" fill="white"/>
<path d="M37.68 22V10.8H38.992L44.016 19.264H43.312L48.272 10.8H49.584L49.6 22H48.064L48.048 13.216H48.416L44 20.64H43.264L38.816 13.216H39.216V22H37.68Z" fill="white"/>
</svg>
