<svg width="132" height="50" viewBox="0 0 132 50" fill="none" xmlns="http://www.w3.org/2000/svg">
<path d="M1.89 45V32.4H3.69V43.434H10.512V45H1.89ZM11.2144 45L15.8944 34.776H17.6224L22.3204 45H20.5564L16.4704 35.694H17.0644L12.9244 45H11.2144ZM13.3564 42.57L13.8244 41.184H19.4404L19.9084 42.57H13.3564ZM24.0526 45V34.776H28.7866C30.0226 34.776 30.9646 35.016 31.6126 35.496C32.2726 35.964 32.6026 36.606 32.6026 37.422C32.6026 38.238 32.3266 38.874 31.7746 39.33C31.2346 39.786 30.5266 40.014 29.6506 40.014L29.9206 39.528C30.9166 39.528 31.7026 39.756 32.2786 40.212C32.8546 40.668 33.1426 41.34 33.1426 42.228C33.1426 43.092 32.8006 43.77 32.1166 44.262C31.4326 44.754 30.4246 45 29.0926 45H24.0526ZM25.7986 43.668H29.0026C29.7706 43.668 30.3586 43.542 30.7666 43.29C31.1746 43.026 31.3786 42.624 31.3786 42.084C31.3786 41.532 31.1746 41.13 30.7666 40.878C30.3586 40.626 29.7706 40.5 29.0026 40.5H25.5106V39.168H28.6246C29.3446 39.168 29.8966 39.036 30.2806 38.772C30.6646 38.508 30.8566 38.124 30.8566 37.62C30.8566 37.116 30.6646 36.738 30.2806 36.486C29.8966 36.234 29.3446 36.108 28.6246 36.108H25.7986V43.668ZM40.2446 45.144C39.1886 45.144 38.2406 44.916 37.4006 44.46C36.5606 44.004 35.8946 43.38 35.4026 42.588C34.9226 41.784 34.6826 40.878 34.6826 39.87C34.6826 38.874 34.9226 37.98 35.4026 37.188C35.8946 36.396 36.5606 35.772 37.4006 35.316C38.2406 34.86 39.1886 34.632 40.2446 34.632C41.3126 34.632 42.2606 34.86 43.0886 35.316C43.9286 35.772 44.5886 36.396 45.0686 37.188C45.5606 37.98 45.8066 38.874 45.8066 39.87C45.8066 40.878 45.5606 41.784 45.0686 42.588C44.5886 43.38 43.9286 44.004 43.0886 44.46C42.2606 44.916 41.3126 45.144 40.2446 45.144ZM40.2446 43.632C40.9766 43.632 41.6246 43.47 42.1886 43.146C42.7646 42.822 43.2146 42.378 43.5386 41.814C43.8746 41.238 44.0426 40.596 44.0426 39.888C44.0426 39.156 43.8746 38.514 43.5386 37.962C43.2146 37.398 42.7646 36.954 42.1886 36.63C41.6246 36.306 40.9766 36.144 40.2446 36.144C39.5246 36.144 38.8766 36.306 38.3006 36.63C37.7246 36.942 37.2686 37.38 36.9326 37.944C36.6086 38.508 36.4466 39.156 36.4466 39.888C36.4466 40.596 36.6086 41.238 36.9326 41.814C37.2686 42.378 37.7246 42.822 38.3006 43.146C38.8766 43.47 39.5246 43.632 40.2446 43.632ZM55.4916 42.084C55.4916 42.708 55.3236 43.248 54.9876 43.704C54.6636 44.16 54.1896 44.514 53.5656 44.766C52.9536 45.018 52.2096 45.144 51.3336 45.144C50.5416 45.144 49.7676 45.036 49.0116 44.82C48.2676 44.592 47.6856 44.292 47.2656 43.92L47.9496 42.552C48.3576 42.876 48.8676 43.146 49.4796 43.362C50.0916 43.566 50.7336 43.668 51.4056 43.668C52.2696 43.668 52.8756 43.53 53.2236 43.254C53.5716 42.966 53.7456 42.63 53.7456 42.246C53.7456 41.91 53.6316 41.646 53.4036 41.454C53.1876 41.25 52.8936 41.094 52.5216 40.986C52.1496 40.866 51.7416 40.758 51.2976 40.662C50.8656 40.566 50.4276 40.458 49.9836 40.338C49.5516 40.218 49.1496 40.056 48.7776 39.852C48.4176 39.648 48.1236 39.372 47.8956 39.024C47.6676 38.664 47.5536 38.214 47.5536 37.674C47.5536 37.062 47.7216 36.528 48.0576 36.072C48.3936 35.616 48.8676 35.262 49.4796 35.01C50.0916 34.758 50.8236 34.632 51.6756 34.632C52.2996 34.632 52.9176 34.704 53.5296 34.848C54.1416 34.98 54.6696 35.202 55.1136 35.514L54.4836 36.918C54.0516 36.618 53.5836 36.408 53.0796 36.288C52.5876 36.168 52.1016 36.108 51.6216 36.108C50.8056 36.108 50.2116 36.252 49.8396 36.54C49.4796 36.816 49.2996 37.158 49.2996 37.566C49.2996 37.902 49.4136 38.172 49.6416 38.376C49.8696 38.568 50.1636 38.724 50.5236 38.844C50.8956 38.952 51.3036 39.054 51.7476 39.15C52.1916 39.246 52.6296 39.354 53.0616 39.474C53.4936 39.594 53.8956 39.756 54.2676 39.96C54.6396 40.164 54.9336 40.44 55.1496 40.788C55.3776 41.124 55.4916 41.556 55.4916 42.084ZM62.8861 45V32.4H64.3621L70.0141 41.922H69.2221L74.8021 32.4H76.2781L76.2961 45H74.5681L74.5501 35.118H74.9641L69.9961 43.47H69.1681L64.1641 35.118H64.6141V45H62.8861ZM79.9335 45V34.776H81.6795V45H79.9335ZM85.1542 45V34.776H86.9002V43.542H92.3902V45H85.1542ZM98.6567 45.144C97.6007 45.144 96.6527 44.916 95.8127 44.46C94.9727 44.004 94.3067 43.38 93.8147 42.588C93.3347 41.784 93.0947 40.878 93.0947 39.87C93.0947 38.874 93.3347 37.98 93.8147 37.188C94.3067 36.396 94.9727 35.772 95.8127 35.316C96.6527 34.86 97.6007 34.632 98.6567 34.632C99.7247 34.632 100.673 34.86 101.501 35.316C102.341 35.772 103.001 36.396 103.481 37.188C103.973 37.98 104.219 38.874 104.219 39.87C104.219 40.878 103.973 41.784 103.481 42.588C103.001 43.38 102.341 44.004 101.501 44.46C100.673 44.916 99.7247 45.144 98.6567 45.144ZM98.6567 43.632C99.3887 43.632 100.037 43.47 100.601 43.146C101.177 42.822 101.627 42.378 101.951 41.814C102.287 41.238 102.455 40.596 102.455 39.888C102.455 39.156 102.287 38.514 101.951 37.962C101.627 37.398 101.177 36.954 100.601 36.63C100.037 36.306 99.3887 36.144 98.6567 36.144C97.9367 36.144 97.2887 36.306 96.7127 36.63C96.1367 36.942 95.6807 37.38 95.3447 37.944C95.0207 38.508 94.8587 39.156 94.8587 39.888C94.8587 40.596 95.0207 41.238 95.3447 41.814C95.6807 42.378 96.1367 42.822 96.7127 43.146C97.2887 43.47 97.9367 43.632 98.6567 43.632ZM106.758 45V34.776H110.934C111.834 34.776 112.608 34.92 113.256 35.208C113.904 35.484 114.408 35.892 114.768 36.432C115.128 36.96 115.308 37.608 115.308 38.376C115.308 39.12 115.128 39.762 114.768 40.302C114.408 40.842 113.904 41.256 113.256 41.544C112.608 41.82 111.834 41.958 110.934 41.958H107.73L108.504 41.166V45H106.758ZM113.598 45L110.934 41.292H112.824L115.488 45H113.598ZM108.504 41.364L107.838 40.536H110.826C111.714 40.536 112.386 40.35 112.842 39.978C113.31 39.606 113.544 39.072 113.544 38.376C113.544 37.68 113.31 37.146 112.842 36.774C112.386 36.402 111.714 36.216 110.826 36.216H107.838L108.504 35.388V41.364ZM118.096 45V34.776H119.842V45H118.096ZM130.462 42.084C130.462 42.708 130.294 43.248 129.958 43.704C129.634 44.16 129.16 44.514 128.536 44.766C127.924 45.018 127.18 45.144 126.304 45.144C125.512 45.144 124.738 45.036 123.982 44.82C123.238 44.592 122.656 44.292 122.236 43.92L122.92 42.552C123.328 42.876 123.838 43.146 124.45 43.362C125.062 43.566 125.704 43.668 126.376 43.668C127.24 43.668 127.846 43.53 128.194 43.254C128.542 42.966 128.716 42.63 128.716 42.246C128.716 41.91 128.602 41.646 128.374 41.454C128.158 41.25 127.864 41.094 127.492 40.986C127.12 40.866 126.712 40.758 126.268 40.662C125.836 40.566 125.398 40.458 124.954 40.338C124.522 40.218 124.12 40.056 123.748 39.852C123.388 39.648 123.094 39.372 122.866 39.024C122.638 38.664 122.524 38.214 122.524 37.674C122.524 37.062 122.692 36.528 123.028 36.072C123.364 35.616 123.838 35.262 124.45 35.01C125.062 34.758 125.794 34.632 126.646 34.632C127.27 34.632 127.888 34.704 128.5 34.848C129.112 34.98 129.64 35.202 130.084 35.514L129.454 36.918C129.022 36.618 128.554 36.408 128.05 36.288C127.558 36.168 127.072 36.108 126.592 36.108C125.776 36.108 125.182 36.252 124.81 36.54C124.45 36.816 124.27 37.158 124.27 37.566C124.27 37.902 124.384 38.172 124.612 38.376C124.84 38.568 125.134 38.724 125.494 38.844C125.866 38.952 126.274 39.054 126.718 39.15C127.162 39.246 127.6 39.354 128.032 39.474C128.464 39.594 128.866 39.756 129.238 39.96C129.61 40.164 129.904 40.44 130.12 40.788C130.348 41.124 130.462 41.556 130.462 42.084Z" fill="white"/>
<path d="M37.1 19V5H39.1V17.26H46.68V19H37.1Z" fill="white"/>
<path d="M49.1 26V12H50.74L57.02 22.58H56.14L62.34 12H63.98L64 26H62.08L62.06 15.02H62.52L57 24.3H56.08L50.52 15.02H51.02V26H49.1Z" fill="white"/>
</svg>
